<svg width="33" height="33" viewBox="0 0 33 33" fill="none" xmlns="http://www.w3.org/2000/svg">
<g clip-path="url(#clip0_1_238)">
<path d="M16.2542 3.44894C20.5927 3.44894 21.1064 3.46797 22.8126 3.54409C24.3983 3.61386 25.2546 3.88026 25.8255 4.10225C26.5803 4.39402 27.1258 4.74922 27.6903 5.31373C28.2611 5.88459 28.61 6.42373 28.9018 7.17852C29.1237 7.74938 29.3901 8.612 29.4599 10.1914C29.536 11.9039 29.5551 12.4177 29.5551 16.7498C29.5551 21.0883 29.536 21.6021 29.4599 23.3083C29.3901 24.894 29.1237 25.7503 28.9018 26.3212C28.61 27.076 28.2548 27.6214 27.6903 28.1859C27.1194 28.7568 26.5803 29.1057 25.8255 29.3974C25.2546 29.6194 24.392 29.8858 22.8126 29.9556C21.1001 30.0317 20.5863 30.0507 16.2542 30.0507C11.9157 30.0507 11.4019 30.0317 9.69569 29.9556C8.10998 29.8858 7.2537 29.6194 6.68285 29.3974C5.92805 29.1057 5.38257 28.7505 4.81806 28.1859C4.2472 27.6151 3.89835 27.076 3.60658 26.3212C3.38458 25.7503 3.11818 24.8877 3.04841 23.3083C2.9723 21.5958 2.95327 21.082 2.95327 16.7498C2.95327 12.4113 2.9723 11.8976 3.04841 10.1914C3.11818 8.60566 3.38458 7.74938 3.60658 7.17852C3.89835 6.42373 4.25355 5.87824 4.81806 5.31373C5.38891 4.74288 5.92805 4.39402 6.68285 4.10225C7.2537 3.88026 8.11632 3.61386 9.69569 3.54409C11.4019 3.46797 11.9157 3.44894 16.2542 3.44894ZM16.2542 0.524902C11.8459 0.524902 11.2941 0.543931 9.56249 0.620045C7.83724 0.696159 6.65113 0.975243 5.62359 1.37484C4.55166 1.79347 3.64463 2.34529 2.74395 3.25232C1.83693 4.153 1.2851 5.06002 0.866479 6.12561C0.466881 7.15949 0.187797 8.33926 0.111683 10.0645C0.035569 11.8024 0.0165405 12.3543 0.0165405 16.7625C0.0165405 21.1708 0.035569 21.7226 0.111683 23.4542C0.187797 25.1794 0.466881 26.3656 0.866479 27.3931C1.2851 28.465 1.83693 29.3721 2.74395 30.2727C3.64463 31.1734 4.55166 31.7316 5.61725 32.1439C6.65113 32.5435 7.8309 32.8225 9.55614 32.8987C11.2877 32.9748 11.8396 32.9938 16.2478 32.9938C20.6561 32.9938 21.2079 32.9748 22.9395 32.8987C24.6647 32.8225 25.8509 32.5435 26.8784 32.1439C27.944 31.7316 28.851 31.1734 29.7517 30.2727C30.6524 29.3721 31.2105 28.465 31.6228 27.3994C32.0224 26.3656 32.3015 25.1858 32.3776 23.4605C32.4537 21.729 32.4728 21.1771 32.4728 16.7689C32.4728 12.3606 32.4537 11.8088 32.3776 10.0772C32.3015 8.35194 32.0224 7.16584 31.6228 6.1383C31.2232 5.06002 30.6714 4.153 29.7644 3.25232C28.8637 2.35163 27.9567 1.79347 26.8911 1.38118C25.8572 0.981585 24.6774 0.702501 22.9522 0.626387C21.2143 0.543931 20.6624 0.524902 16.2542 0.524902Z" fill="white"/>
<path d="M16.2541 8.42188C11.6493 8.42188 7.91333 12.1578 7.91333 16.7627C7.91333 21.3676 11.6493 25.1035 16.2541 25.1035C20.859 25.1035 24.595 21.3676 24.595 16.7627C24.595 12.1578 20.859 8.42188 16.2541 8.42188ZM16.2541 22.1731C13.2667 22.1731 10.8437 19.7502 10.8437 16.7627C10.8437 13.7752 13.2667 11.3523 16.2541 11.3523C19.2416 11.3523 21.6646 13.7752 21.6646 16.7627C21.6646 19.7502 19.2416 22.1731 16.2541 22.1731Z" fill="white"/>
<path d="M26.872 8.09178C26.872 9.17006 25.9967 10.039 24.9248 10.039C23.8465 10.039 22.9775 9.16372 22.9775 8.09178C22.9775 7.0135 23.8528 6.14453 24.9248 6.14453C25.9967 6.14453 26.872 7.01984 26.872 8.09178Z" fill="white"/>
</g>
<defs>
<clipPath id="clip0_1_238">
<rect width="32.4752" height="32.4752" fill="white" transform="translate(0.0165405 0.524902)"/>
</clipPath>
</defs>
</svg>
